<svg xmlns="http://www.w3.org/2000/svg" width="32" height="31"><g data-name="Group 77"><path data-name="Rectangle 55" fill="#5eb6e1" d="M0 0h32v31H0z"/><path data-name="Path 37" d="M16.236 8.464a25.254 25.254 0 013.294.092 4.244 4.244 0 011.556.275 3.214 3.214 0 011.556 1.556 4.244 4.244 0 01.275 1.556c0 .824.092 1.1.092 3.294a25.253 25.253 0 01-.092 3.294 4.244 4.244 0 01-.275 1.556 3.214 3.214 0 01-1.556 1.556 4.244 4.244 0 01-1.556.275c-.824 0-1.1.092-3.294.092a25.253 25.253 0 01-3.294-.092 4.244 4.244 0 01-1.556-.275 3.214 3.214 0 01-1.556-1.557 4.244 4.244 0 01-.275-1.556c0-.824-.092-1.1-.092-3.294a25.254 25.254 0 01.092-3.294 4.244 4.244 0 01.275-1.556 3.287 3.287 0 01.641-.915 1.547 1.547 0 01.915-.641 4.244 4.244 0 011.556-.275 25.254 25.254 0 013.294-.092m0-1.463a27.039 27.039 0 00-3.386.092 5.65 5.65 0 00-2.013.366 3.582 3.582 0 00-1.464.915 3.582 3.582 0 00-.915 1.464 4.17 4.17 0 00-.366 2.013A27.039 27.039 0 008 15.236a27.039 27.039 0 00.092 3.386 5.65 5.65 0 00.366 2.013 3.582 3.582 0 00.915 1.465 3.582 3.582 0 001.464.915 5.65 5.65 0 002.013.366 27.04 27.04 0 003.386.092 27.04 27.04 0 003.386-.092 5.65 5.65 0 002.013-.366 3.839 3.839 0 002.379-2.379 5.65 5.65 0 00.366-2.013c0-.915.092-1.19.092-3.386a27.04 27.04 0 00-.092-3.386 5.65 5.65 0 00-.366-2.013 3.582 3.582 0 00-.914-1.465 3.582 3.582 0 00-1.465-.915 5.65 5.65 0 00-2.013-.366A27.039 27.039 0 0016.236 7m0 4.027a4.142 4.142 0 00-4.21 4.21 4.21 4.21 0 104.21-4.21m0 6.955a2.7 2.7 0 01-2.745-2.746 2.7 2.7 0 012.745-2.745 2.7 2.7 0 012.745 2.745 2.7 2.7 0 01-2.745 2.745m4.393-8.145a1.007 1.007 0 101.007 1.007 1.016 1.016 0 00-1.007-1.007" fill="#fff" fill-rule="evenodd"/></g></svg>