<svg xmlns="http://www.w3.org/2000/svg" width="32" height="31"><g data-name="Group 76"><path data-name="Rectangle 56" fill="#5eb6e1" d="M0 0h32v31H0z"/><path data-name="Path 36" d="M13.216 22.361a9.523 9.523 0 009.609-9.609v-.458a7.438 7.438 0 001.647-1.739 7.6 7.6 0 01-1.922.545 3.56 3.56 0 001.464-1.83 8.394 8.394 0 01-2.1.824A3.268 3.268 0 0019.439 9a3.438 3.438 0 00-3.386 3.386 1.784 1.784 0 00.092.732A9.461 9.461 0 019.19 9.549a3.5 3.5 0 00-.458 1.739 3.636 3.636 0 001.468 2.837 3.085 3.085 0 01-1.556-.458 3.344 3.344 0 002.745 3.294 2.821 2.821 0 01-.915.092 1.557 1.557 0 01-.641-.092 3.467 3.467 0 003.2 2.379 6.909 6.909 0 01-4.21 1.464 2.534 2.534 0 01-.823-.09 8.638 8.638 0 005.216 1.647" fill="#fff" fill-rule="evenodd"/></g></svg>