<svg xmlns="http://www.w3.org/2000/svg" width="32" height="32"><g data-name="Group 138"><g data-name="Component 12 – 1"><g data-name="Component 11 – 1"><g data-name="Ellipse 31" fill="#fff" stroke="#5eb6e1" stroke-width="2"><circle cx="16" cy="16" r="16" stroke="none"/><circle cx="16" cy="16" r="15" fill="none"/></g></g><path data-name="Icon material-call" d="M11.637 14.675a11.036 11.036 0 004.8 4.8l1.6-1.6a.724.724 0 01.743-.175 8.31 8.31 0 002.6.415.731.731 0 01.729.729v2.543a.731.731 0 01-.729.729A12.384 12.384 0 019 9.729.731.731 0 019.729 9h2.55a.731.731 0 01.729.729 8.276 8.276 0 00.415 2.6.731.731 0 01-.182.743z" fill="#5eb6e1"/></g></g></svg>