<svg xmlns="http://www.w3.org/2000/svg" width="25.5" height="20.71"><path d="M22.879 5.161c.016.227.016.453.016.68A14.768 14.768 0 018.025 20.71 14.769 14.769 0 010 18.364a10.812 10.812 0 001.262.065 10.466 10.466 0 006.488-2.233 5.235 5.235 0 01-4.886-3.624 6.59 6.59 0 00.987.081 5.528 5.528 0 001.375-.178 5.227 5.227 0 01-4.191-5.129v-.065a5.263 5.263 0 002.362.663A5.234 5.234 0 011.779.954a14.855 14.855 0 0010.776 5.469 5.9 5.9 0 01-.129-1.2 5.231 5.231 0 019.045-3.576A10.289 10.289 0 0024.788.385a5.212 5.212 0 01-2.3 2.88 10.477 10.477 0 003.009-.809 11.234 11.234 0 01-2.621 2.7z" fill="#5eb6e1"/></svg>