<svg xmlns="http://www.w3.org/2000/svg" width="13.028" height="13.028"><path data-name="Path 3" d="M6.514 1.158a19.973 19.973 0 012.606.072 3.357 3.357 0 011.23.217 2.542 2.542 0 011.23 1.23 3.357 3.357 0 01.217 1.23c0 .651.072.869.072 2.606A19.973 19.973 0 0111.8 9.12a3.357 3.357 0 01-.217 1.23 2.542 2.542 0 01-1.23 1.23 3.357 3.357 0 01-1.23.217c-.651 0-.869.072-2.606.072a19.973 19.973 0 01-2.609-.069 3.357 3.357 0 01-1.23-.217 2.542 2.542 0 01-1.23-1.23A3.357 3.357 0 011.23 9.12c0-.651-.072-.869-.072-2.606a19.973 19.973 0 01.072-2.606 3.357 3.357 0 01.217-1.23 2.6 2.6 0 01.507-.724 1.224 1.224 0 01.724-.507 3.357 3.357 0 011.23-.217 19.973 19.973 0 012.606-.072m0-1.158a21.385 21.385 0 00-2.678.072 4.468 4.468 0 00-1.592.29 2.833 2.833 0 00-1.158.724 2.833 2.833 0 00-.724 1.158 3.3 3.3 0 00-.29 1.592A21.385 21.385 0 000 6.514a21.385 21.385 0 00.072 2.678 4.468 4.468 0 00.29 1.592 2.833 2.833 0 00.724 1.158 2.833 2.833 0 001.158.724 4.468 4.468 0 001.592.29 21.385 21.385 0 002.678.072 21.385 21.385 0 002.678-.072 4.468 4.468 0 001.592-.29 3.037 3.037 0 001.882-1.882 4.468 4.468 0 00.29-1.592c0-.724.072-.941.072-2.678a21.385 21.385 0 00-.072-2.678 4.468 4.468 0 00-.29-1.592 2.833 2.833 0 00-.724-1.158 2.833 2.833 0 00-1.158-.724 4.468 4.468 0 00-1.592-.29A21.385 21.385 0 006.514 0m0 3.185a3.276 3.276 0 00-3.329 3.329 3.329 3.329 0 103.329-3.329m0 5.5a2.133 2.133 0 01-2.171-2.171 2.133 2.133 0 012.171-2.171 2.133 2.133 0 012.171 2.171 2.133 2.133 0 01-2.171 2.171m3.474-6.441a.8.8 0 10.8.8.8.8 0 00-.8-.8" fill="#f933df" fill-rule="evenodd"/></svg>