<svg xmlns="http://www.w3.org/2000/svg" width="17.25" height="13.992"><path data-name="Path 2" d="M5.463 13.992A9.973 9.973 0 0015.525 3.929V3.45a7.79 7.79 0 001.725-1.821 7.956 7.956 0 01-2.013.575A3.729 3.729 0 0016.77.287a8.79 8.79 0 01-2.2.863A3.423 3.423 0 0011.979 0a3.6 3.6 0 00-3.546 3.546 1.868 1.868 0 00.1.767A9.908 9.908 0 011.25.575 3.67 3.67 0 00.767 2.4 3.808 3.808 0 002.3 5.367a3.231 3.231 0 01-1.629-.479 3.5 3.5 0 002.875 3.45 2.954 2.954 0 01-.958.1 1.631 1.631 0 01-.671-.1 3.631 3.631 0 003.354 2.492 7.236 7.236 0 01-4.408 1.533 2.653 2.653 0 01-.863-.1 9.046 9.046 0 005.463 1.725" fill="#00a2ff" fill-rule="evenodd"/></svg>