<svg xmlns="http://www.w3.org/2000/svg" width="16" height="16"><defs><clipPath id="a"><path fill="none" d="M0 0h16v16H0z"/></clipPath></defs><g data-name="Component 5 – 3" clip-path="url(#a)"><path data-name="Path 4" d="M2.4 2.4A7.263 7.263 0 018 0a7.263 7.263 0 015.6 2.4A7.263 7.263 0 0116 8a7.263 7.263 0 01-2.4 5.6A7.263 7.263 0 018 16a7.263 7.263 0 01-5.6-2.4A7.984 7.984 0 010 8a7.263 7.263 0 012.4-5.6zm6.667 12a3.276 3.276 0 002-1.2A5.824 5.824 0 0012 10.4a2.208 2.208 0 00-.667-1.6A2.347 2.347 0 009.6 8H8.267a3.893 3.893 0 01-1.2-.267 1.21 1.21 0 01-.4-.933.693.693 0 01.267-.533A1.011 1.011 0 017.467 6a.91.91 0 01.667.4c.267.133.4.267.533.267a.8.8 0 00.533-.134A.8.8 0 009.333 6a2.122 2.122 0 00-.667-1.333 5.515 5.515 0 00.667-2.533.287.287 0 00-.267-.267A4.122 4.122 0 008 1.6a6.67 6.67 0 00-3.467 1.067 3.357 3.357 0 00-1.2 2.667A3.414 3.414 0 004.4 7.867a3.643 3.643 0 002.533 1.066v.533a1.712 1.712 0 00.534 1.334 1.942 1.942 0 001.2.8V14c0 .133 0 .133.133.267s.133.133.267.133z" fill="#5eb6e1"/></g></svg>